<?xml version="1.0" standalone="no"?>
<!DOCTYPE svg PUBLIC "-//W3C//DTD SVG 20010904//EN"
 "http://www.w3.org/TR/2001/REC-SVG-20010904/DTD/svg10.dtd">
<svg version="1.0" xmlns="http://www.w3.org/2000/svg"
 width="395.000000pt" height="430.000000pt" viewBox="0 0 395.000000 430.000000"
 preserveAspectRatio="xMidYMid meet">

<g transform="translate(0.000000,430.000000) scale(0.100000,-0.100000)"
fill="#000000" stroke="none">
<path d="M1990 3801 c-73 -76 -129 -236 -116 -326 6 -37 13 -50 39 -65 52 -32
132 -44 224 -34 l83 9 21 -28 c32 -44 78 -67 134 -67 l50 0 13 -42 c32 -103
131 -207 220 -231 43 -11 47 -16 79 -82 45 -96 72 -207 79 -336 4 -60 9 -107
12 -105 2 3 16 -1 31 -8 39 -20 187 -54 266 -62 87 -7 245 10 345 37 68 19
170 63 170 74 0 2 -18 14 -39 26 -38 21 -105 101 -165 198 -16 24 -74 145
-130 270 -109 241 -157 331 -231 429 -121 160 -275 229 -457 202 -105 -15
-177 -42 -213 -80 -29 -31 -65 -40 -65 -17 0 30 -61 137 -103 179 -53 52 -137
98 -181 98 -21 0 -39 -11 -66 -39z"/>
<path d="M1099 3697 c-126 -46 -247 -145 -361 -297 -31 -41 -116 -169 -188
-285 -194 -310 -259 -389 -365 -443 l-40 -20 54 -25 c53 -23 55 -23 73 -5 22
22 37 23 66 2 19 -13 22 -24 22 -80 l0 -64 -50 0 -50 0 0 -78 c0 -49 -5 -83
-12 -90 -8 -8 0 -6 18 3 24 11 38 13 58 5 l26 -10 0 80 c0 43 5 82 10 85 6 3
10 25 10 48 l0 42 187 0 c168 0 197 3 273 24 134 37 130 37 130 7 0 -14 4 -26
9 -26 17 0 22 19 10 41 -8 15 -8 19 0 15 6 -4 11 -2 11 5 0 8 3 9 13 0 8 -6
18 -7 23 -3 4 4 2 -1 -5 -10 -15 -20 -9 -23 20 -8 22 12 25 36 7 43 -8 4 -7 6
4 6 9 1 19 -5 22 -11 3 -7 5 -4 4 7 0 11 2 27 5 35 3 8 15 53 26 99 59 238
240 462 463 569 42 20 77 41 77 45 1 5 -10 23 -23 40 -13 18 -26 53 -30 80 -7
61 -28 100 -68 130 -63 46 -115 60 -243 64 -107 3 -127 1 -186 -20z"/>
<path d="M1528 2786 c-63 -22 -133 -94 -152 -153 -11 -34 10 -63 44 -63 24 0
33 7 50 39 65 129 214 127 303 -3 35 -51 98 -20 83 40 -11 41 -102 127 -152
142 -53 15 -129 15 -176 -2z"/>
<path d="M2185 2788 c-99 -36 -187 -162 -143 -206 24 -24 57 -14 82 26 50 78
109 108 181 92 50 -11 81 -34 110 -80 25 -40 53 -50 84 -31 41 26 -12 125 -93
176 -41 25 -61 30 -120 32 -39 1 -84 -3 -101 -9z"/>
<path d="M991 2615 c1 -28 15 -42 34 -34 16 6 17 8 3 8 -9 1 -22 9 -27 19 -6
9 -10 13 -10 7z"/>
<path d="M1056 2613 c-11 -11 -7 -20 9 -20 8 0 15 4 15 8 0 11 -16 20 -24 12z"/>
<path d="M243 2530 c0 -30 2 -43 4 -27 2 15 2 39 0 55 -2 15 -4 2 -4 -28z"/>
<path d="M940 2510 c0 -5 5 -10 11 -10 5 0 7 5 4 10 -3 6 -8 10 -11 10 -2 0
-4 -4 -4 -10z"/>
<path d="M1820 2466 c0 -26 46 -81 83 -100 27 -13 48 -16 74 -11 46 8 103 63
103 99 l0 26 -130 0 c-103 0 -130 -3 -130 -14z m240 -14 c0 -19 -35 -55 -66
-68 -42 -18 -80 -10 -116 24 -49 45 -39 52 77 52 58 0 105 -3 105 -8z"/>
<path d="M530 2429 c-7 -11 -9 -27 -6 -36 3 -8 -6 -34 -20 -59 -19 -32 -22
-44 -12 -44 27 0 51 -27 58 -66 l8 -39 -1 40 c-1 48 40 124 63 118 8 -2 -7 8
-35 23 -63 34 -60 30 -47 59 14 30 7 33 -8 4z"/>
<path d="M652 2405 c-12 -25 -20 -45 -17 -45 7 0 47 81 43 86 -3 2 -14 -17
-26 -41z"/>
<path d="M410 2261 c-5 -11 -9 -32 -9 -48 1 -25 2 -25 8 7 4 20 11 41 15 48 4
7 5 12 2 12 -3 0 -10 -9 -16 -19z"/>
<path d="M219 2250 c-4 -19 2 -30 25 -49 l31 -25 -22 25 c-12 13 -23 35 -25
49 l-4 25 -5 -25z"/>
<path d="M164 2188 l-29 -33 33 29 c17 17 32 31 32 33 0 8 -8 1 -36 -29z"/>
<path d="M346 2195 c-11 -8 -15 -15 -9 -15 6 0 16 7 23 15 16 19 11 19 -14 0z"/>
<path d="M288 2173 c6 -2 18 -2 25 0 6 3 1 5 -13 5 -14 0 -19 -2 -12 -5z"/>
<path d="M410 2176 c0 -2 8 -10 18 -17 15 -13 16 -12 3 4 -13 16 -21 21 -21
13z"/>
<path d="M535 2169 c-4 -6 -16 -14 -28 -18 -15 -6 -17 -9 -6 -13 8 -3 22 5 32
18 10 13 16 24 13 24 -3 0 -8 -5 -11 -11z"/>
<path d="M458 2143 c7 -3 16 -2 19 1 4 3 -2 6 -13 5 -11 0 -14 -3 -6 -6z"/>
<path d="M531 2084 c0 -11 3 -14 6 -6 3 7 2 16 -1 19 -3 4 -6 -2 -5 -13z"/>
<path d="M458 2083 c7 -3 16 -2 19 1 4 3 -2 6 -13 5 -11 0 -14 -3 -6 -6z"/>
<path d="M103 2035 c0 -27 2 -38 4 -22 2 15 2 37 0 50 -2 12 -4 0 -4 -28z"/>
<path d="M399 2059 l-24 -20 30 17 c39 24 40 24 28 24 -6 0 -21 -9 -34 -21z"/>
<path d="M537 2047 c-3 -8 -1 -20 4 -28 6 -10 9 -7 9 14 0 29 -5 35 -13 14z"/>
<path d="M1840 1950 l0 -80 115 0 115 0 0 80 0 80 -115 0 -115 0 0 -80z"/>
<path d="M531 1987 c0 -10 -8 -31 -16 -47 -9 -17 -13 -30 -11 -30 11 0 37 62
33 78 -4 15 -5 15 -6 -1z"/>
<path d="M301 1934 c0 -11 3 -14 6 -6 3 7 2 16 -1 19 -3 4 -6 -2 -5 -13z"/>
<path d="M168 1879 c18 -19 30 -37 28 -40 -2 -2 7 -5 22 -6 24 -1 24 0 7 9
-11 6 -36 25 -55 42 l-35 31 33 -36z"/>
<path d="M290 1862 l-5 -52 43 0 c23 0 58 6 77 14 30 13 34 13 38 -2 4 -14 5
-13 6 2 0 11 13 33 29 50 l27 29 -41 -31 c-42 -34 -90 -52 -136 -52 -25 0 -27
3 -30 48 l-3 47 -5 -53z"/>
<path d="M223 1764 c25 -31 25 -268 0 -298 -16 -18 -16 -18 11 2 39 30 88 37
125 19 l31 -15 0 133 0 134 -30 -11 c-42 -14 -88 -3 -124 30 -17 15 -23 18
-13 6z"/>
<path d="M1253 1550 c-71 -70 -57 -187 30 -240 36 -22 77 -26 77 -7 -1 36 -58
271 -66 274 -5 2 -24 -10 -41 -27z"/>
<path d="M2617 1554 c-6 -19 -57 -261 -57 -268 0 -13 68 18 92 41 60 57 61
148 4 211 -30 32 -34 34 -39 16z"/>
<path d="M592 1463 c-170 -3 -183 -5 -176 -21 4 -9 9 -38 12 -63 3 -38 -1 -51
-24 -80 l-28 -34 27 24 26 24 331 -6 c181 -3 330 -5 330 -4 0 1 -7 24 -15 51
-8 27 -15 64 -15 83 l0 33 -142 -2 c-79 -2 -226 -4 -326 -5z"/>
<path d="M1770 1462 c0 -4 20 -6 45 -4 l45 4 0 -40 0 -41 -47 -4 -48 -3 53 -2
52 -2 0 50 0 50 -50 0 c-27 0 -50 -3 -50 -8z"/>
<path d="M1910 1462 c0 -4 20 -6 45 -4 l45 4 0 -40 0 -41 -47 -4 -48 -4 50 1
50 1 3 48 3 47 -50 0 c-28 0 -51 -3 -51 -8z"/>
<path d="M2050 1462 c0 -4 20 -6 45 -4 l45 4 0 -40 0 -41 -47 -4 -48 -4 50 1
50 1 3 48 3 47 -50 0 c-28 0 -51 -3 -51 -8z"/>
<path d="M2817 1315 c-10 -24 -27 -51 -38 -61 -10 -9 -19 -22 -19 -28 1 -6
104 -87 230 -180 127 -94 230 -175 230 -181 0 -6 -29 -51 -65 -101 -59 -81
-69 -89 -101 -92 -32 -2 -95 -32 -68 -32 5 0 15 5 21 11 14 14 85 14 114 -1
31 -17 47 -38 57 -75 8 -29 9 -29 87 78 43 59 86 107 94 108 9 1 -4 5 -29 10
-66 12 -100 54 -100 120 0 46 4 55 36 86 20 19 35 35 33 37 -17 13 -446 334
-454 338 -6 4 -18 -13 -28 -37z"/>
<path d="M278 1253 c7 -3 16 -2 19 1 4 3 -2 6 -13 5 -11 0 -14 -3 -6 -6z"/>
<path d="M328 1253 c7 -3 16 -2 19 1 4 3 -2 6 -13 5 -11 0 -14 -3 -6 -6z"/>
<path d="M3354 1009 c27 -4 61 -18 75 -31 15 -13 12 -8 -6 10 -27 27 -40 32
-75 31 l-43 -1 49 -9z"/>
<path d="M3429 803 l-24 -28 28 24 c15 14 27 26 27 28 0 8 -8 1 -31 -24z"/>
<path d="M1850 561 l0 -139 88 -16 c146 -27 132 -41 132 139 l0 155 -110 0
-110 0 0 -139z"/>
<path d="M2956 623 c-4 -5 -24 -14 -44 -20 -20 -7 -26 -11 -12 -8 14 3 43 5
65 6 22 1 32 3 22 6 -9 2 -15 9 -12 14 7 11 -8 12 -19 2z"/>
<path d="M2817 559 c-35 -28 -43 -31 -84 -25 -25 3 -51 10 -58 16 -6 5 -40 10
-74 12 -56 2 -66 0 -82 -21 -26 -31 -24 -57 6 -86 19 -20 34 -25 67 -24 l43 2
-49 6 c-66 10 -91 44 -66 92 9 16 22 19 81 19 l70 0 -7 -58 -6 -59 31 5 c17 2
31 0 31 -5 0 -13 -120 -99 -133 -95 -5 1 5 -15 23 -38 17 -22 34 -40 37 -40 3
0 22 14 43 30 21 17 43 30 49 30 6 0 11 4 11 10 0 5 12 16 27 23 25 14 25 15
6 21 -20 6 -43 44 -43 70 0 28 41 66 73 67 l32 1 -30 7 -30 7 44 32 c24 18 40
32 35 32 -5 0 -27 -14 -47 -31z"/>
<path d="M3040 586 c0 -2 7 -7 16 -10 8 -3 12 -2 9 4 -6 10 -25 14 -25 6z"/>
<path d="M3080 567 c0 -2 15 -16 33 -33 l32 -29 -29 33 c-28 30 -36 37 -36 29z"/>
<path d="M3181 514 c0 -11 3 -14 6 -6 3 7 2 16 -1 19 -3 4 -6 -2 -5 -13z"/>
<path d="M2865 490 c10 -11 20 -20 23 -20 3 0 -3 9 -13 20 -10 11 -20 20 -23
20 -3 0 3 -9 13 -20z"/>
<path d="M3147 485 c6 -11 12 -27 15 -35 3 -9 7 -4 10 13 3 15 3 25 0 22 -3
-2 -12 1 -20 8 -13 10 -14 9 -5 -8z"/>
<path d="M2891 443 c-1 -6 -4 -20 -7 -30 -5 -17 -5 -17 6 0 6 10 9 23 6 30 -3
9 -5 9 -5 0z"/>
<path d="M2923 423 c-10 -10 -13 -14 -6 -9 7 5 28 12 46 16 29 7 30 8 6 9 -15
1 -35 -7 -46 -16z"/>
<path d="M3019 406 c23 -31 26 -57 12 -85 -7 -13 -6 -18 3 -18 8 0 13 15 14
38 1 28 -5 45 -24 66 l-26 28 21 -29z"/>
<path d="M3170 393 l0 -36 -22 19 c-23 19 -23 19 -5 -2 47 -57 -8 -129 -72
-94 -17 8 -19 3 -26 -63 -4 -40 -11 -77 -17 -84 -5 -7 -8 -20 -5 -30 4 -14 5
-13 6 5 1 14 7 22 19 22 37 0 61 -13 65 -34 1 -11 4 10 4 48 1 53 7 80 28 120
25 47 47 166 31 166 -3 0 -6 -16 -6 -37z"/>
<path d="M3098 393 c7 -3 16 -2 19 1 4 3 -2 6 -13 5 -11 0 -14 -3 -6 -6z"/>
<path d="M2846 256 l-48 -81 23 -15 c13 -8 32 -23 41 -32 17 -17 18 -17 18 1
0 11 4 22 9 25 7 5 68 102 79 129 2 4 -5 7 -16 7 -12 0 -29 11 -39 23 l-18 24
-49 -81z"/>
<path d="M2549 313 c-13 -16 -12 -17 4 -4 9 7 17 15 17 17 0 8 -8 3 -21 -13z"/>
<path d="M2509 283 c-13 -16 -12 -17 4 -4 16 13 21 21 13 21 -2 0 -10 -8 -17
-17z"/>
<path d="M2599 213 c-13 -16 -12 -17 4 -4 9 7 17 15 17 17 0 8 -8 3 -21 -13z"/>
<path d="M2538 183 c7 -3 16 -2 19 1 4 3 -2 6 -13 5 -11 0 -14 -3 -6 -6z"/>
<path d="M2943 163 c9 -2 25 -2 35 0 9 3 1 5 -18 5 -19 0 -27 -2 -17 -5z"/>
<path d="M2737 113 c-4 -3 -7 -11 -7 -17 0 -6 5 -5 12 2 6 6 9 14 7 17 -3 3
-9 2 -12 -2z"/>
<path d="M3092 32 c-11 -25 -11 -25 4 -10 9 9 15 21 13 27 -2 6 -10 -2 -17
-17z"/>
</g>
</svg>
